<?xml version="1.0" encoding="utf-8"?>
<!-- Generator: Adobe Illustrator 25.2.1, SVG Export Plug-In . SVG Version: 6.00 Build 0)  -->
<svg version="1.1" id="Capa_1" xmlns="http://www.w3.org/2000/svg" xmlns:xlink="http://www.w3.org/1999/xlink" x="0px" y="0px"
	 viewBox="0 0 700 700" style="enable-background:new 0 0 700 700;" xml:space="preserve">
<g>
	<path d="M482.5,392.3c32.4-38.5,64-19.1,64-19.1C525.7,417.2,482.5,392.3,482.5,392.3z"/>
	<path d="M392.5,430.1c-1.1,0-2.2-0.7-2.7-1.8c-0.6-1.5,0.1-3.2,1.5-3.8c84.9-36.2,134.4-82.2,147.1-136.7
		c8.4-36.2-1.5-69.5-11.3-91.1c-10.6-23.4-23.4-38.3-23.5-38.5c-1-1.2-0.9-3,0.3-4.1c1.2-1,3-0.9,4.1,0.3
		c0.5,0.6,13.4,15.7,24.4,39.9c10.2,22.4,20.4,57,11.6,94.8c-13.1,56.5-63.7,103.8-150.4,140.7C393.3,430,392.9,430.1,392.5,430.1
		L392.5,430.1z"/>
	<path d="M470.9,84c43.8,17.4,28.1,66.2,28.1,66.2C449.2,116.1,470.9,84,470.9,84z"/>
	<path d="M528.7,98.3c39.5,49.4,6.6,80.7,6.6,80.7C502.8,134.8,528.7,98.3,528.7,98.3z"/>
	<path d="M462.7,158.7c36.9-4.1,48.5,35,48.5,35C477.3,201.6,462.7,158.7,462.7,158.7z"/>
	<path d="M571.1,171c15.6,53.5-17.6,59.9-17.6,59.9C532.5,183.4,571.1,171,571.1,171L571.1,171z"/>
	<path d="M482.9,207.3c51,1.4,50.6,53.6,50.6,53.6C500.7,266.9,482.9,207.3,482.9,207.3L482.9,207.3z"/>
	<path d="M509.3,267.2c26.1,33.2,0,70.3,0,70.3C475.1,317.9,509.3,267.2,509.3,267.2z"/>
	<path d="M479.2,321.2c16.1,40.8-23.5,60.9-23.5,60.9C436.9,340,479.2,321.2,479.2,321.2z"/>
	<path d="M393.6,416c-7.7-41.2,43.3-52.4,43.3-52.4C448.5,388.4,393.6,416,393.6,416z"/>
	<path d="M552.4,291.3c41.1-5,29.3-51.8,29.3-51.8C543.5,248.7,552.4,291.3,552.4,291.3z"/>
	<path d="M530.1,351.7c6.1-50.7,49.4-45.7,49.4-45.7C581.2,339,530.1,351.7,530.1,351.7z"/>
	<path d="M500.7,423.5c-44.4,25.2-63.5-8.5-63.5-8.5C463.1,394.5,500.7,423.5,500.7,423.5z"/>
	<path d="M464.8,449.2c-26.8,27.7-69.7-10.3-69.7-10.3C406.7,416.3,464.8,449.2,464.8,449.2z"/>
	<path d="M380,440.7c0,0,30.2,10.6,28.8,35.3C408.9,476,377.3,464.2,380,440.7z"/>
	<path d="M153.5,373.2c0,0,31.6-19.4,64,19.1C217.5,392.3,174.3,417.2,153.5,373.2z"/>
	<path d="M307.5,430.1c1.1,0,2.2-0.7,2.7-1.8c0.6-1.5-0.1-3.2-1.5-3.8c-84.9-36.2-134.4-82.2-147.1-136.7
		c-8.4-36.2,1.5-69.5,11.3-91.1c10.6-23.4,23.4-38.3,23.5-38.5c1-1.2,0.9-3-0.3-4.1c-1.2-1-3-0.9-4.1,0.3
		c-0.5,0.6-13.4,15.7-24.4,39.9c-10.2,22.4-20.4,57-11.6,94.8c13.1,56.5,63.7,103.8,150.4,140.7C306.7,430,307.1,430.1,307.5,430.1
		L307.5,430.1z"/>
	<path d="M201.1,150.2c0,0-15.7-48.8,28.1-66.2C229.2,84,250.8,116.1,201.1,150.2z"/>
	<path d="M164.7,179c0,0-33-31.3,6.6-80.7C171.3,98.3,197.2,134.8,164.7,179z"/>
	<path d="M188.8,193.6c0,0,11.6-39.1,48.5-35C237.3,158.7,222.7,201.6,188.8,193.6z"/>
	<path d="M146.6,230.9c0,0-33.2-6.3-17.6-59.9C128.9,171,167.5,183.4,146.6,230.9L146.6,230.9z"/>
	<path d="M166.6,261c0,0-0.5-52.2,50.6-53.6C217.1,207.3,199.3,266.9,166.6,261z"/>
	<path d="M190.7,337.5c0,0-26.1-37.1,0-70.3C190.7,267.2,224.9,317.9,190.7,337.5z"/>
	<path d="M244.3,382.1c0,0-39.6-20-23.5-60.9C220.8,321.2,263.1,340,244.3,382.1z"/>
	<path d="M263.1,363.5c0,0,51,11.3,43.3,52.4C306.4,416,251.5,388.4,263.1,363.5z"/>
	<path d="M118.2,239.4c0,0-11.8,46.8,29.3,51.8C147.6,291.3,156.5,248.7,118.2,239.4L118.2,239.4z"/>
	<path d="M120.5,306c0,0,43.3-4.9,49.4,45.7C169.9,351.7,118.8,339,120.5,306z"/>
	<path d="M262.8,415c0,0-19.2,33.7-63.5,8.5C199.3,423.5,236.9,394.5,262.8,415z"/>
	<path d="M304.9,438.9c0,0-42.9,38-69.7,10.3C235.2,449.3,293.3,416.3,304.9,438.9z"/>
	<path d="M291.1,476c-1.3-24.7,28.8-35.3,28.8-35.3C322.7,464.2,291.1,476,291.1,476z"/>
</g>
</svg>
