<svg xmlns:dc="http://purl.org/dc/elements/1.1/" xmlns:cc="http://creativecommons.org/ns#" xmlns:rdf="http://www.w3.org/1999/02/22-rdf-syntax-ns#" xmlns:svg="http://www.w3.org/2000/svg" xmlns="http://www.w3.org/2000/svg" xmlns:sodipodi="http://sodipodi.sourceforge.net/DTD/sodipodi-0.dtd" xmlns:inkscape="http://www.inkscape.org/namespaces/inkscape" viewBox="0 0 100 125" version="1.1" x="0px" y="0px"><g transform="translate(0,-952.36216)"><path d="m 57.497291,1002.5641 c -1.0219,0 -2.0463,0.037 -3.0577,0.1896 -3.814,0.5751 -7.284,2.4635 -10.6753,4.301 -3.393,1.8385 -6.8753,3.6843 -10.6829,4.3126 -1.9033,0.314 -3.8579,0.314 -5.7611,0 l 0,3.2191 0.1421,0.023 c 1.8085,0.2984 3.6681,0.2984 5.4766,0 3.6211,-0.5975 7.0212,-2.383 10.4095,-4.219 3.3904,-1.837 6.9457,-3.7912 10.9611,-4.3967 0.863,-0.1301 1.7183,-0.1783 2.5579,-0.1939 0.8395,-0.016 1.6635,0 2.4636,0 l 0,-3.2308 c -0.6083,0 -1.2207,-0.01 -1.8338,-0.01 z m 0,4.978 c -1.0048,0 -1.9866,0.036 -2.9306,0.1785 -3.6125,0.5448 -6.9975,2.3673 -10.3897,4.2053 -3.3979,1.8411 -6.9624,3.7477 -10.9568,4.4068 -1.9506,0.3218 -3.9502,0.3286 -5.9031,0.022 l 0,6.7846 c 1.4018,-1.4424 3.1095,-2.6285 5.0777,-3.4437 1.9421,-0.8044 3.9668,-1.1779 5.9538,-1.161 5.9611,0.051 11.6094,3.6091 14.0228,9.4355 1.0168,2.4548 1.3398,5.0315 1.0618,7.5096 l 3.0417,0 2.8531,0 15.9672,0 0,-3.4921 -15.9672,0 0,-24.4402 c -0.6166,0 -1.2279,-0.01 -1.8307,-0.01 z m -19.1635,12.7385 c -1.7589,-0.015 -3.5481,0.3145 -5.2708,1.0281 -6.8914,2.8545 -10.1841,10.8039 -7.3296,17.6952 2.8544,6.8913 10.8039,10.1841 17.6952,7.3296 6.8913,-2.8545 10.1843,-10.8039 7.3297,-17.6952 -2.1408,-5.1685 -7.1475,-8.3128 -12.4245,-8.3577 z m -0.01,3.4808 c 1.0098,0.01 2.0041,0.1662 2.952,0.4654 l -2.1997,5.3104 a 4.3651436,4.3651436 0 0 0 -0.8296,-0.081 4.3651436,4.3651436 0 0 0 -0.8289,0.083 l -2.1967,-5.3037 c 1.0273,-0.3265 2.0729,-0.4802 3.1029,-0.474 z m 4.5652,1.1329 c 1.7809,0.9265 3.2929,2.3926 4.2742,4.2883 l -5.3032,2.1966 a 4.3651436,4.3651436 0 0 0 -1.1709,-1.1742 l 2.1999,-5.3107 z m -9.2812,0.01 2.1969,5.3038 a 4.3651436,4.3651436 0 0 0 -1.1744,1.1707 l -5.3094,-2.1992 c 0.9265,-1.781 2.3912,-3.2941 4.2869,-4.2753 z m -4.9551,5.8886 5.3098,2.1994 a 4.3651436,4.3651436 0 0 0 -0.081,0.8294 4.3651436,4.3651436 0 0 0 0.083,0.8289 l -5.3032,2.1967 c -0.6466,-2.0343 -0.6125,-4.1398 -0.01,-6.0544 z m 19.1794,0 c 0.6466,2.0342 0.612,4.1396 0.01,6.0541 l -5.3097,-2.1994 a 4.3651436,4.3651436 0 0 0 0.081,-0.8294 4.3651436,4.3651436 0 0 0 -0.083,-0.8287 l 5.3036,-2.1966 z m -13.1992,5.4673 a 4.3651436,4.3651436 0 0 0 1.1709,1.1743 l -2.1992,5.3094 c -1.7809,-0.9266 -3.2941,-2.3912 -4.2752,-4.287 l 5.3035,-2.1967 z m 7.2297,0 5.3092,2.1992 c -0.9265,1.781 -2.3912,3.2941 -4.2869,4.2753 l -2.1966,-5.3036 a 4.3651436,4.3651436 0 0 0 1.1743,-1.1709 z m -2.7875,1.8393 2.1967,5.3034 c -2.0342,0.6466 -4.1397,0.6123 -6.054,0.01 l 2.1993,-5.3101 a 4.3651436,4.3651436 0 0 0 0.8294,0.081 4.3651436,4.3651436 0 0 0 0.8286,-0.083 z" style="color:#000000;clip-rule:nonzero;display:inline;overflow:visible;visibility:visible;opacity:1;isolation:auto;mix-blend-mode:normal;color-interpolation:sRGB;color-interpolation-filters:linearRGB;solid-color:#000000;solid-opacity:1;fill:#000000;fill-opacity:1;fill-rule:nonzero;stroke:none;stroke-width:20;stroke-linecap:round;stroke-linejoin:round;stroke-miterlimit:4;stroke-dasharray:none;stroke-dashoffset:0;stroke-opacity:1;color-rendering:auto;image-rendering:auto;shape-rendering:auto;text-rendering:auto;enable-background:accumulate"/></g><text x="0" y="115" fill="#000000" font-size="5px" font-weight="bold" font-family="'Helvetica Neue', Helvetica, Arial-Unicode, Arial, Sans-serif">Created by Andrew Doane</text><text x="0" y="120" fill="#000000" font-size="5px" font-weight="bold" font-family="'Helvetica Neue', Helvetica, Arial-Unicode, Arial, Sans-serif">from the Noun Project</text></svg>