<svg xmlns="http://www.w3.org/2000/svg" viewBox="0 0 76.2 80.85"><g id="Capa_2" data-name="Capa 2"><g id="Capa_1-2" data-name="Capa 1"><path d="M73.91,71.38c-7.1-2.21-14.2-4.41-21.29-6.65A1.5,1.5,0,0,1,51.8,64c-1.64-3.58-3.24-7.18-4.87-10.77a.92.92,0,0,1,.12-1.06Q55.38,40.8,63.69,29.43a2.11,2.11,0,0,1,1-.7c1.49-.5,3-.94,4.51-1.4a2.64,2.64,0,0,0,2-2.16c.46-2.62.88-5.24,1.32-7.86a1.4,1.4,0,0,0-.5-1.54,1.43,1.43,0,0,0-1.63,0l-6.87,3.55a2.76,2.76,0,0,0-1.64,2.73c0,1.5.07,3,0,4.5a2.52,2.52,0,0,1-.43,1.36q-5.55,7.67-11.15,15.31l-4,5.54a.9.9,0,0,1,0-.55q5.41-14.8,10.86-29.6a1.85,1.85,0,0,1,.67-.82c1.32-.9,2.68-1.75,4-2.64a2.71,2.71,0,0,0,1.25-2.78c-.29-2.54-.59-5.07-.86-7.61a1.54,1.54,0,0,0-.9-1.45,1.5,1.5,0,0,0-1.69.52C57.78,5.57,56,7.31,54.1,9a2.82,2.82,0,0,0-.84,3.15c.44,1.43.9,2.86,1.28,4.3a2.38,2.38,0,0,1,0,1.35q-4.92,13.53-9.88,27c-.19.53-.4,1.07-.63,1.67a11.44,11.44,0,0,0-.87-1.5,1.61,1.61,0,0,1-.32-1.38c.31-2.24.59-4.49.87-6.73.9-7,1.78-14,2.7-21.06a1.81,1.81,0,0,1,.46-.94c1-1.12,2.1-2.21,3.18-3.29a2.86,2.86,0,0,0,.71-3.25c-.83-2.3-1.6-4.62-2.45-6.91A8.3,8.3,0,0,0,47.33,0h-.95a5.85,5.85,0,0,0-.82.83C44.11,3,42.69,5.11,41.25,7.25a2.77,2.77,0,0,0-.12,3.18c.78,1.35,1.56,2.69,2.29,4.06a2.12,2.12,0,0,1,.23,1.11c-.07.91-.22,1.82-.34,2.74L41,36.5c-.26,2.1-.54,4.21-.82,6.38L26.12,40.36l.06-.13h-.13A5.35,5.35,0,0,1,24.51,40h-.06a5,5,0,0,1-1.92-.37,6.19,6.19,0,0,1-.76.05,4.87,4.87,0,0,1-2.34-.55l-.13,0a5.07,5.07,0,0,1-2.1-.43,5.09,5.09,0,0,1-.59-.14l0,.06-6.17-1.1,0-.09a5.06,5.06,0,0,1-.91-.26c-.15,0-.3,0-.46,0a5.07,5.07,0,0,1-2.1-.44,5.28,5.28,0,0,1-1.55-.27,5.22,5.22,0,0,1-1.8.19,2.9,2.9,0,0,0-1.8,1.86,24.86,24.86,0,0,0-1,3,35.43,35.43,0,0,0-.44,12,108.9,108.9,0,0,0,4.5,21A2.76,2.76,0,0,0,8,76.72c2.12-.21,4.25-.37,6.37-.58a1.74,1.74,0,0,1,1.47.51,15.46,15.46,0,0,0,10.29,4.2,16,16,0,0,0,13.45-6.39,1.71,1.71,0,0,1,.95-.52c.61-.12,1.25-.12,1.88-.18A36.57,36.57,0,0,0,48.83,73a6.64,6.64,0,0,1,4.06.25l1.8.57,16.63,5.19c2.24.7,3.47.06,4.16-2.15.16-.53.33-1.06.49-1.59C76.6,73.27,75.93,72,73.91,71.38ZM64.54,22.24a.78.78,0,0,1,.27-.57c1.46-.78,2.93-1.52,4.57-2.37a39.11,39.11,0,0,0-.6,3.92,1.89,1.89,0,0,1-1.81,2c-.79.15-1.55.46-2.45.73C64.52,24.61,64.51,23.42,64.54,22.24ZM56.1,10.87c1.17-1.12,2.35-2.23,3.67-3.48.21,1.83.41,3.48.57,5.14a.7.7,0,0,1-.3.55c-1,.67-2,1.29-3.09,2-.38-1.31-.76-2.54-1.1-3.78C55.82,11.2,56,11,56.1,10.87ZM43.56,9.23a.65.65,0,0,1,0-.56c.91-1.4,1.85-2.79,2.88-4.32.61,1.75,1.19,3.36,1.73,5a.56.56,0,0,1-.16.46c-.86.84-1.74,1.66-2.68,2.55C44.74,11.32,44.14,10.28,43.56,9.23ZM13.83,68.57a13,13,0,0,1,0-7.75l7.53,3.11a9.61,9.61,0,0,1,0,1.21.76.76,0,0,1-.37.47C18.61,66.6,16.26,67.57,13.83,68.57Zm13.64-9.24H25.94c-1-2.44-2.05-4.93-3.11-7.5a13,13,0,0,1,7.75,0Zm5.6-6.48a13.45,13.45,0,0,1,5.49,5.47L31,61.45l-1-1.18ZM29.38,64.69a2.69,2.69,0,0,1-2.69,2.71A2.74,2.74,0,0,1,24,64.75,2.69,2.69,0,0,1,26.67,62,2.65,2.65,0,0,1,29.38,64.69Zm-5.94-4.33-1.09,1.08-7.51-3.11a13.6,13.6,0,0,1,5.48-5.49C21.38,55.38,22.41,57.88,23.44,60.36ZM20.3,76.54a13.42,13.42,0,0,1-5.45-5.47L22.34,68l.17.11c.95.62.87,1.34.41,2.29-.84,1.77-1.53,3.62-2.28,5.44C20.54,76,20.43,76.26,20.3,76.54Zm2.52,1,3.1-7.48.14,0c1.17-.24,1.65.37,2,1.41.74,2,1.63,4,2.49,6.11A13,13,0,0,1,22.82,77.59Zm10.26-1C32,74,31,71.51,30,69l1.25-1,7.36,3A13.7,13.7,0,0,1,33.08,76.56Zm6.5-8-7.51-3.11V63.94l7.52-3.12A13.08,13.08,0,0,1,39.58,68.58Zm7.72,2.07c-1.86,0-3.72.3-5.74.47a16.13,16.13,0,0,0,.06-12.64A15.85,15.85,0,0,0,35,50.85,16.08,16.08,0,0,0,16.2,52.42a15.88,15.88,0,0,0-5.5,9.93,16.16,16.16,0,0,0,2.45,11.2l-5.75.5c-2.74-9.8-5.35-19.59-4.51-30L12,45.87l6,1.21c1.1.21,1.79-.16,1.95-1s-.39-1.41-1.44-1.62L4.06,41.55c-.15,0-.29-.08-.54-.15a14.09,14.09,0,0,1,.74-1.76A.89.89,0,0,1,5,39.38c5.1.89,10.2,1.8,15.29,2.7,6.11,1.09,12.22,2.19,18.33,3.24a3.39,3.39,0,0,1,2.77,2.14C44.2,53.75,47,60.05,49.89,66.29A2.88,2.88,0,0,1,47.3,70.65Zm25.43,6-20.19-6.3c.21-.92.39-1.74.59-2.63l20.4,6.35C73.27,75,73,75.76,72.73,76.66Z"/></g></g></svg>