<svg xmlns="http://www.w3.org/2000/svg" viewBox="0 0 217.27 294.02"><g id="Capa_2" data-name="Capa 2"><g id="Capa_1-2" data-name="Capa 1"><path d="M26.2,156.87c5.2-1.87,6.89-5.11,6.85-10a130.87,130.87,0,0,1,1.21-15.28c.41-3.7,2.72-5.6,5.94-5.26,3.45.36,5.39,2.78,5.15,6.52-.21,3.35-.49,6.7-.82,11.17,4.62-3.87,8.62-7.08,12.41-10.51.62-.56.5-2.09.48-3.16-.11-5.74-.36-11.47-.44-17.21-.07-4.23,1.89-6.47,5.46-6.54s5.64,2.12,5.75,6.3a45.85,45.85,0,0,0,.88,10,84.86,84.86,0,0,1,7.06-6.64c3.09-2.33,3.14-5.27,2.91-8.63-.3-4.35-.32-8.72-.31-13.09,0-3.63,2.11-5.77,5.42-5.82s5.52,2.06,5.78,5.55c.08,1.12,0,2.25.07,3.37,0,1,.09,1.94.19,4,4.19-5.39,10.09-8.39,8.9-16-.7-4.52-.39-9.21-.45-13.82,0-4.14,1.68-6.24,5.13-6.45,3.69-.23,5.7,1.72,6.06,6a39.83,39.83,0,0,0,.69,5.74c3.09-4.19,8.2-7.19,6.45-13.94a109.93,109.93,0,0,1-2.26-14.39c-.5-4.18,1.32-6.57,4.9-6.94,3.3-.34,5.6,1.69,6.25,5.54.31,1.8.58,3.61,1,6.47,1.89-3.76,3.29-6.63,4.77-9.46,1.85-3.56,4.49-4.56,7.66-3s4,4.27,2.38,7.9c-1.49,3.28-3.15,6.49-5.08,10.42l7.76-2.09c4.31-1.15,6.82-.1,7.88,3.3,1.13,3.62-.45,6.22-4.67,7.48-5,1.49-10,3.15-15.12,4.27a12.61,12.61,0,0,0-8.75,6.22c-1.17,2-2.71,3.78-4.56,6.31,3.47-.5,6.14-.92,8.82-1.26,3.67-.45,6,1.15,6.53,4.5s-1.05,5.73-4.65,6.43a149.36,149.36,0,0,1-15.52,2.55c-4.59.4-8,2.16-10.55,5.92a62.82,62.82,0,0,1-4.54,5.17c3.42-.45,6-.87,8.65-1.11,4-.37,6.3,1.3,6.73,4.73s-1.52,5.73-5.33,6.39c-3.44.61-6.9,1.1-10,1.59,1.7,5.6,3.31,11.12,5.06,16.6,1.24,3.86,3.36,4.59,6.27,1.69a57.61,57.61,0,0,0,7.91-9.89c6.22-9.77,11.62-20.1,18.34-29.51,9.24-12.93,21.46-22.23,37.48-25.53a46.16,46.16,0,0,1,10.39-1.1,8.84,8.84,0,0,0,7.18-3.17c6.29-6.7,7.16-14.61,4.95-23-6-22.69-32.62-43-61.39-31.45-10.25,4.1-21.72,5.41-32.76,7.27C86.09,24.8,69.51,27.56,54.13,35c-3.52,1.71-6.31.58-7.76-2.66C45,29.33,46,26.69,49.31,25c12.15-6.12,25.18-9.5,38.49-11.86,10.45-1.85,21-3.25,31.39-5.24a84.59,84.59,0,0,0,14.32-4.23c40-15.37,76.42,20.61,75.64,51.13a31.6,31.6,0,0,1-11.11,24,5.06,5.06,0,0,0-1.89,4.71c.71,20.74,10.12,38.86,17.15,57.69,1,2.69,2.13,5.32,3.14,8,1.86,4.92.67,7.52-4.26,9.24-4.7,1.64-9.42,3.21-14.64,5,1,5.5,2,11,3,16.42,1.3,7,2.72,13.94,4,20.93,2.07,11.74-5.53,22.28-17.51,24.05-7.76,1.15-15.58,2-24.34,3-.15,9.31-1,19.17-.26,28.91.61,8.36,2.68,16.67,4.67,24.87,1.69,7-2.29,12.39-10.23,12.34-7.61,0-15.25-.36-22.83-1-23.52-2.06-46.42-6.88-68-16.64a164.85,164.85,0,0,1-16.13-8.69c-4.47-2.66-5.89-7-3.64-11.6,7.36-15.12,6-30.13-.9-44.73A231.88,231.88,0,0,0,30.85,186c-9.76-15.4-19.38-30.84-25.22-48.25q-16.41-48.94,15-89.93c1.22-1.57,4-3,5.85-2.72s4,2.52,4.38,4.28-.83,4.28-2.07,5.92A85.6,85.6,0,0,0,13.54,87.12c-4.76,19.61-1.39,38.34,6.44,56.53C21.9,148.1,24.1,152.42,26.2,156.87Zm128.86,126c-5-27.62-5.4-35.72-2.79-59.56.73-6.72,2.36-7.91,9-8.09,7.6-.2,15.22-.63,22.77-1.46,7.8-.84,10.47-5,9-12.7q-3.69-19.46-7.27-38.93c-.9-4.89.23-6.7,5.06-8.35,4.43-1.52,8.86-3,13.39-4.56-7.66-21.87-19.35-42-18.91-65.74a45,45,0,0,0-27.49,9.54c-9.39,7.25-15.63,17-21.52,27a257.2,257.2,0,0,1-15.11,23.54c-4,5.33-9.59,9.15-16.84,7.47s-9.45-7.84-11.47-14a32.63,32.63,0,0,0-2.73-6.9c-3-4.94-8-5.3-11.76-.89-4.36,5.12-5.83,11.11-3.52,17.45A36.25,36.25,0,0,0,80.39,156c6,7.86,7.06,16,1.67,24.26a65.42,65.42,0,0,1-11.63,13c-4.55,4-9.89,7.09-15,10.69,8.28,17.95,9.16,36.33,1.74,55.32C87.47,276.6,120.48,282,155.06,282.9ZM62.68,143.71l-11,9.08c3.13,1,5.75,1.84,8.33,2.75,3.86,1.37,5.28,3.75,4.31,7.06s-4,4.8-7.79,3.62c-4.52-1.4-9-3-13.52-4.36a4.91,4.91,0,0,0-3.45.07c-2.55,1.46-4.88,3.29-7.49,5.12L49.5,193.9c8.4-4.85,16-9.79,21.63-17.22,4.22-5.59,4.12-9.21-.2-14.42A36.29,36.29,0,0,1,62.68,143.71Z"/></g></g></svg>