<svg xmlns="http://www.w3.org/2000/svg" viewBox="0 0 40.54 10.32"><g id="Capa_2" data-name="Capa 2"><g id="Capa_1-2" data-name="Capa 1"><g id="Capa_1-2-2" data-name="Capa 1-2"><path d="M40.54,5.23a1.44,1.44,0,0,0-.95-1.33L32.7.38a2.78,2.78,0,0,0-3.18.26c-1.21.87-2.39,1.81-3.65,2.62a2.45,2.45,0,0,1-1.36.44Q15,3.66,5.57,3.56l-5.15,0a4.06,4.06,0,0,1-.07,1A4.49,4.49,0,0,1,0,6.16l24.58.25a2.06,2.06,0,0,1,1.15.41c1.28.92,2.51,1.89,3.77,2.85a2.63,2.63,0,0,0,2.92.36c2.39-1.15,4.77-2.33,7.15-3.5A1.42,1.42,0,0,0,40.54,5.23Z"/></g></g></g></svg>